<?xml version="1.0" encoding="UTF-8"?>
<!DOCTYPE svg PUBLIC "-//W3C//DTD SVG 1.1//EN" "http://www.w3.org/Graphics/SVG/1.1/DTD/svg11.dtd">
<!-- Creator: CorelDRAW X7 -->
<svg xmlns="http://www.w3.org/2000/svg" xml:space="preserve" width="88.9mm" height="50.8mm" version="1.1" style="shape-rendering:geometricPrecision; text-rendering:geometricPrecision; image-rendering:optimizeQuality; fill-rule:evenodd; clip-rule:evenodd"
viewBox="0 0 8890 5080"
 xmlns:xlink="http://www.w3.org/1999/xlink">
 <defs>
  <style type="text/css">
   <![CDATA[
    .str0 {stroke:#FEFEFE;stroke-width:7.62}
    .str2 {stroke:#FEFEFE;stroke-width:15.68}
    .str1 {stroke:#FEFEFE;stroke-width:9.24}
    .fil4 {fill:none}
    .fil2 {fill:#FEFEFE}
    .fil0 {fill:#B6272D}
    .fil1 {fill:#FEFEFE;fill-rule:nonzero}
    .fil3 {fill:#FEFEFE;fill-rule:nonzero}
   ]]>
  </style>
 </defs>
 <g id="Layer_x0020_1">
  <metadata id="CorelCorpID_0Corel-Layer"/>
  <g id="_2869289311168">
   <rect class="fil0" x="2877" y="1393" width="3523" height="1715"/>
   <g>
    <g>
     <path class="fil1" d="M4090 2471c48,-110 111,-228 152,-362 18,-58 29,-71 5,-76 -6,-1 -32,-9 -32,-37 0,-21 16,-38 37,-38 22,0 39,17 39,38 0,133 -233,587 -233,587l-243 -608 -27 0 0 -11 134 0 0 11 -32 0 200 496zm727 48l0 0c-3,60 -126,82 -158,-7l-93 -250 -137 0 -112 299 32 0 0 10 -85 0 0 -10 28 0 225 -607c230,541 236,591 263,591 31,1 34,-44 34,-40l3 14zm-256 -278l0 0 -63 -174 -64 174 127 0zm312 201l0 0c0,-47 74,-48 74,0 0,22 -23,36 -23,36 0,123 284,138 284,-43 2,-184 -316,-124 -327,-318 0,-222 379,-203 379,-28 0,46 -73,47 -73,0 0,-23 24,-36 24,-36 0,-119 -250,-124 -250,37 0,208 325,102 325,317 0,229 -413,230 -413,35zm752 29l0 0c49,-110 112,-228 153,-362 17,-58 29,-71 4,-76 -6,-1 -31,-9 -31,-37 0,-21 16,-38 37,-38 21,0 38,17 38,38 0,133 -233,587 -233,587l-242 -608 -28 0 0 -11 134 0 0 11 -31 0 199 496zm389 90l0 0 0 10 -131 0 0 -10 30 0 0 -585 -25 0 0 -11 125 0 0 11 -27 0 0 585 28 0z"/>
     <path class="fil2" d="M5860 1801c-5,9 -1,20 8,26 10,6 49,18 52,11 4,-7 -24,-35 -34,-41 -9,-6 -21,-4 -26,4zm112 37l0 0c3,7 42,-5 52,-11 9,-6 13,-17 8,-26 -5,-8 -17,-10 -26,-4 -10,6 -37,34 -34,41zm37 -95l0 0c-9,-6 -22,-3 -29,7 -8,10 -25,50 -18,56 6,7 41,-23 49,-33 7,-10 6,-23 -2,-30zm-79 63l0 0c7,-6 -10,-46 -17,-56 -8,-10 -21,-13 -30,-7 -8,7 -9,20 -2,30 8,10 43,40 49,33zm1 57l0 0c-2,-1 -5,0 -6,1l-20 26c-3,4 -3,12 2,14 5,3 12,0 14,-5l13 -31c0,-1 -1,-3 -3,-5zm34 1l0 0c-1,-1 -3,-2 -6,-1 -2,2 -2,4 -2,5l12 31c2,5 9,8 14,5 5,-2 5,-10 2,-14l-20 -26zm-32 34l0 0 13 36 13 -36 -13 -35 -13 35zm13 -46l0 0c11,0 20,-9 20,-20 0,-11 -9,-20 -20,-20 -11,0 -21,9 -21,20 0,11 10,20 21,20zm0 -32l0 0c6,0 12,6 12,12 0,7 -6,12 -12,12 -7,0 -12,-5 -12,-12 0,-6 5,-12 12,-12zm0 -126l0 0c-12,0 -21,11 -21,25 0,14 14,62 21,62 8,0 22,-48 22,-62 0,-14 -10,-25 -22,-25zm108 77l0 0c0,0 8,-27 -9,-49 -18,-21 -46,-17 -46,-17 0,0 1,-27 -12,-40 -22,-25 -60,-25 -83,0 -12,13 -12,40 -12,40 0,0 -28,-4 -45,17 -17,22 -9,49 -9,49 0,0 -22,6 -19,35 4,29 45,85 96,58 13,-7 16,-18 6,-10 -43,22 -84,-15 -87,-48 -2,-27 17,-32 17,-32 0,0 -8,-25 8,-44 15,-20 43,-12 43,-12 0,0 -1,-28 9,-39 19,-21 51,-21 69,0 10,11 10,39 10,39 0,0 28,-8 43,12 15,19 8,44 8,44 0,0 20,5 16,32 -4,33 -43,70 -86,48 -10,-8 -7,3 5,10 52,27 93,-29 96,-58 4,-29 -18,-35 -18,-35z"/>
     <g>
      <path class="fil3 str0" d="M4953 2708l2 0c-1,5 -2,10 -3,14 -1,4 -2,7 -4,11 -2,-1 -4,-1 -7,-1 -3,0 -8,0 -13,0 -4,0 -7,0 -11,0 -4,0 -6,0 -5,0 -4,0 -8,0 -13,0 -4,0 -10,0 -17,0 -6,0 -11,1 -14,1l0 -3c2,-1 3,-1 5,-1 2,-1 3,-1 4,-2 0,-1 1,-1 1,-2 0,-1 1,-2 1,-4 0,-2 0,-6 1,-11 0,-6 0,-12 1,-19 0,-6 0,-11 0,-12l-1 -26c0,-8 0,-14 -1,-17 0,-2 -1,-4 -2,-5 -2,-1 -4,-2 -8,-3 0,-1 0,-1 0,-2l53 0c6,0 15,0 26,-1 0,5 0,10 -1,15 -1,4 -2,7 -3,7 -1,0 -2,-1 -2,-2 0,0 0,-1 1,-3 0,-1 0,-2 0,-3 0,-4 -3,-6 -7,-7 -5,-1 -11,-2 -17,-2 -8,0 -17,1 -26,2 -1,9 -1,16 -1,23 0,4 0,8 0,13 0,6 0,8 0,8 1,0 5,0 12,0 12,0 20,0 24,-1 2,0 4,0 5,-1 1,0 2,-1 2,-3 1,-1 2,-4 3,-7l2 0c0,6 0,11 0,16 0,4 0,9 0,15l-3 0c0,-5 -1,-9 -2,-11 -1,-2 -4,-3 -8,-3 -4,-1 -10,-1 -20,-1 -6,0 -11,0 -15,1l0 11c-1,15 0,26 1,33 1,1 2,1 4,1 1,0 2,1 4,1 1,0 3,0 5,1 2,0 5,0 9,0 8,0 15,-1 20,-2 5,-1 8,-3 11,-6 3,-3 5,-7 7,-12zm18 0l0 -32c-2,0 -5,0 -8,0 0,-1 0,-1 0,-2 4,-3 8,-6 11,-9 2,-2 6,-6 9,-11l-1 15c5,1 10,1 16,1 3,0 5,0 9,0l-1 5c-2,0 -5,0 -8,0 -1,0 -2,0 -3,0 -2,0 -5,0 -9,0 -1,0 -2,0 -2,0 -1,0 -1,0 -2,1 0,1 0,2 0,3 0,2 0,3 0,5l-1 25c0,5 1,9 2,13 1,3 4,4 9,4 2,0 4,0 7,-1 2,-1 5,-2 9,-3 0,0 0,0 0,1 0,0 0,0 0,0 -2,2 -5,5 -10,7 -6,2 -10,3 -14,3 -4,0 -7,-2 -9,-4 -3,-2 -4,-7 -4,-13l0 -8zm40 -76l0 -3c1,-1 2,-1 2,-1l16 -8 3 -2 3 2c-1,5 -2,10 -3,17 0,6 0,14 -1,24l0 17c6,-3 12,-5 16,-6 4,-2 7,-2 11,-2 5,0 9,1 12,5 2,3 4,7 4,11 1,5 1,11 1,18 0,2 0,3 0,5 0,1 0,3 0,5 0,2 0,4 0,6 0,2 -1,3 -1,3 0,3 1,4 2,5 1,1 4,1 10,1l-1 3 -5 0c-1,0 -4,0 -10,0 -6,0 -9,0 -9,0 0,0 -2,0 -4,1 0,0 -1,-1 -1,-2 0,0 1,0 2,-1 2,0 3,-1 4,-2 1,-2 2,-4 2,-7 1,-3 1,-8 1,-15 0,-10 -1,-18 -3,-23 -1,-4 -5,-7 -12,-7 -3,0 -6,1 -10,2 -4,1 -7,2 -9,3 0,2 0,4 0,8l-1 20c0,1 0,2 0,3 0,1 0,3 0,4 0,5 0,9 1,10 0,1 1,2 2,2 1,0 4,1 8,1l0 3c-1,0 -5,0 -11,0 -6,0 -13,0 -20,0l0 -2c4,-1 6,-2 7,-2 2,-1 2,-2 3,-4 0,-2 0,-6 1,-11 0,-9 0,-16 0,-22l1 -23c0,-2 0,-8 0,-16 0,-7 -1,-12 -1,-16 -1,-4 -2,-5 -5,-5 0,0 -2,0 -5,1zm79 98l-1 -2c3,0 6,-1 7,-2 1,0 2,-1 3,-2 0,0 0,-1 1,-3 0,-3 0,-6 0,-11 1,-4 1,-9 1,-13 0,-6 0,-11 -1,-13 0,-2 -1,-4 -3,-4 -1,-1 -3,-1 -7,-2 0,0 0,-1 0,-1 2,-1 5,-2 9,-4 4,-1 6,-2 6,-3 2,-1 4,-1 4,-1 1,0 1,1 2,2 0,2 0,4 0,8 6,-3 11,-6 15,-7 4,-2 7,-2 11,-2 5,0 9,1 12,3 2,2 3,5 4,8 1,4 1,8 1,14l0 19c0,8 0,12 1,13 0,0 2,1 4,1 3,1 4,1 4,1l0 3c-4,-1 -8,-1 -14,-1 -4,0 -10,0 -16,1l0 -3c5,-1 8,-2 9,-4 1,-2 1,-6 2,-12 0,-6 0,-10 0,-13 0,-5 0,-9 0,-12 -1,-3 -2,-6 -4,-8 -2,-2 -5,-3 -9,-3 -1,0 -4,0 -7,1 -4,0 -8,2 -13,5l0 21c0,10 0,16 0,19 0,1 0,2 1,3 0,0 1,1 2,1 2,1 4,1 8,2l0 2c-2,0 -3,0 -6,0 -2,0 -5,0 -8,-1l-18 0zm81 2l0 -3c5,0 7,-1 8,-2 0,-1 0,-2 1,-6 0,-3 0,-7 0,-12 0,-5 0,-7 0,-8 0,-8 0,-13 0,-15 0,-2 -1,-4 -1,-4 -1,-1 -2,-1 -5,-1 -2,-1 -3,-1 -3,-1 0,-1 0,-2 1,-2 7,-2 13,-6 19,-11 1,0 1,0 2,1 -1,2 -1,5 -2,9 0,5 0,9 0,14 -1,5 -1,9 -1,13 0,2 0,6 0,11 1,5 1,9 1,11 1,1 1,1 2,1 1,1 2,1 4,1 2,0 4,0 6,1l1 2 -33 1zm12 -98c0,-2 1,-3 2,-5 1,-1 3,-1 4,-1 2,0 4,0 5,2 1,1 2,2 2,4 0,2 -1,3 -2,5 -1,1 -3,1 -5,1 -1,0 -3,0 -4,-1 -1,-2 -2,-3 -2,-5zm81 87l1 3c-7,6 -14,9 -22,9 -4,0 -9,-1 -14,-3 -4,-2 -8,-4 -11,-7 -1,-2 -3,-5 -4,-8 -1,-4 -1,-8 -1,-11 0,-7 2,-13 5,-19 4,-5 8,-10 14,-13 5,-3 10,-4 15,-4 3,0 6,0 11,2 5,1 8,3 8,4 0,1 -1,2 -2,5 -2,2 -3,3 -4,3 -1,0 -1,0 -2,-1 -1,0 -2,-1 -4,-2 -6,-2 -11,-4 -15,-4 -5,0 -9,2 -12,6 -3,3 -4,9 -4,16 0,7 1,12 4,17 3,4 6,8 10,10 4,2 8,3 12,3 2,0 5,-1 7,-2 3,-1 5,-2 8,-4zm134 -13l2 0c-1,5 -2,10 -3,14 -1,4 -2,7 -4,11 -1,-1 -4,-1 -7,-1 -3,0 -8,0 -13,0 -4,0 -7,0 -11,0 -4,0 -6,0 -5,0 -4,0 -8,0 -12,0 -5,0 -11,0 -18,0 -6,0 -11,1 -14,1l0 -3c2,-1 3,-1 5,-1 2,-1 3,-1 4,-2 0,-1 1,-1 1,-2 0,-1 1,-2 1,-4 0,-2 1,-6 1,-11 0,-6 0,-12 1,-19 0,-6 0,-11 0,-12l-1 -26c0,-8 0,-14 -1,-17 0,-2 -1,-4 -2,-5 -2,-1 -4,-2 -8,-3 0,-1 0,-1 0,-2l53 0c6,0 15,0 26,-1 0,5 0,10 -1,15 -1,4 -2,7 -3,7 -1,0 -2,-1 -2,-2 0,0 0,-1 1,-3 0,-1 0,-2 0,-3 0,-4 -2,-6 -7,-7 -5,-1 -11,-2 -17,-2 -8,0 -17,1 -26,2 -1,9 -1,16 -1,23 0,4 0,8 0,13 0,6 0,8 0,8 1,0 5,0 12,0 12,0 20,0 24,-1 2,0 4,0 5,-1 1,0 2,-1 2,-3 1,-1 2,-4 3,-7l2 0c0,6 0,11 0,16 0,4 0,9 0,15l-3 0c0,-5 -1,-9 -2,-11 -1,-2 -4,-3 -8,-3 -4,-1 -10,-1 -20,-1 -6,0 -11,0 -15,1l0 11c-1,15 0,26 1,33 1,1 2,1 4,1 1,0 2,1 4,1 1,0 3,0 5,1 2,0 5,0 9,0 8,0 15,-1 20,-2 5,-1 8,-3 11,-6 3,-3 5,-7 7,-12zm8 24l0 -2c4,-1 7,-2 9,-4 2,-2 3,-5 3,-8 0,-2 1,-6 1,-13 0,-7 1,-14 1,-23 0,-9 0,-16 0,-23 0,-15 0,-23 -2,-25 -1,-1 -3,-2 -6,-2 0,0 -1,0 -1,0 0,0 -1,0 -1,0 0,0 -1,0 -1,0l0 -2c10,-5 18,-8 22,-11l3 0c-2,6 -3,18 -4,35l0 39c0,18 0,29 1,31 0,2 2,3 5,4 3,0 5,1 7,1l0 3c-10,-1 -18,-1 -21,-1 -5,0 -11,0 -16,1zm44 0l0 -3c5,0 7,-1 8,-2 0,-1 0,-2 1,-6 0,-3 0,-7 0,-12 0,-5 0,-7 0,-8 0,-8 0,-13 0,-15 0,-2 -1,-4 -1,-4 -1,-1 -2,-1 -4,-1 -3,-1 -4,-1 -4,-1 0,-1 0,-2 1,-2 7,-2 13,-6 19,-11 1,0 1,0 2,1 -1,2 -1,5 -2,9 0,5 0,9 0,14 -1,5 -1,9 -1,13 0,2 0,6 0,11 1,5 1,9 1,11 1,1 1,1 2,1 1,1 2,1 4,1 2,0 4,0 6,1l1 2 -33 1zm12 -98c0,-2 1,-3 2,-5 1,-1 3,-1 4,-1 2,0 4,0 5,2 1,1 2,2 2,4 0,2 -1,3 -2,5 -1,1 -3,1 -5,1 -1,0 -3,0 -4,-1 -1,-2 -2,-3 -2,-5zm35 74l0 -32c-3,0 -5,0 -9,0 0,-1 0,-1 0,-2 5,-3 9,-6 11,-9 3,-2 6,-6 10,-11l-1 15c5,1 10,1 16,1 2,0 5,0 8,0l0 5c-3,0 -6,0 -9,0 0,0 -1,0 -3,0 -2,0 -5,0 -8,0 -2,0 -2,0 -3,0 0,0 -1,0 -1,1 0,1 0,2 0,3 0,2 0,3 -1,5l0 25c0,5 1,9 2,13 1,3 4,4 9,4 1,0 4,0 6,-1 3,-1 6,-2 9,-3 1,0 1,0 1,1 0,0 0,0 0,0 -2,2 -6,5 -11,7 -5,2 -9,3 -14,3 -3,0 -6,-2 -9,-4 -2,-2 -3,-7 -3,-13l0 -8zm94 -19l-40 9c0,5 0,9 1,12 1,3 2,5 4,8 5,6 10,9 16,9 2,0 5,-1 8,-2 2,-1 5,-2 9,-5l1 2c-9,7 -18,10 -25,10 -8,0 -14,-2 -18,-8 -5,-6 -7,-13 -7,-21 0,-8 2,-14 5,-19 3,-5 7,-9 11,-11 4,-3 8,-4 10,-4 2,0 5,0 7,1 3,1 6,3 8,5 3,2 5,5 7,9 0,1 1,1 1,2 0,0 1,0 2,0l0 3zm-40 6l10 -3c1,0 3,0 5,-1 3,-1 5,-1 6,-1 3,-1 5,-1 6,-2 0,0 1,0 1,-1 0,-1 -1,-2 -2,-4 -2,-2 -3,-4 -6,-6 -2,-2 -5,-3 -8,-3 -5,0 -7,2 -9,7 -2,4 -3,9 -3,14zm173 13l3 0c-1,5 -2,10 -3,14 -1,4 -3,7 -4,11 -2,-1 -5,-1 -8,-1 -3,0 -7,0 -13,0 -3,0 -7,0 -11,0 -4,0 -5,0 -5,0 -3,0 -7,0 -12,0 -5,0 -11,0 -17,0 -7,0 -12,1 -15,1l0 -3c2,-1 4,-1 5,-1 2,-1 3,-1 4,-2 1,-1 1,-1 1,-2 1,-1 1,-2 1,-4 1,-2 1,-6 1,-11 1,-6 1,-12 1,-19 0,-6 0,-11 0,-12l0 -26c-1,-8 -1,-14 -1,-17 -1,-2 -2,-4 -3,-5 -1,-1 -4,-2 -8,-3 0,-1 1,-1 1,-2l52 0c6,0 15,0 27,-1 0,5 -1,10 -2,15 0,4 -1,7 -2,7 -2,0 -2,-1 -2,-2 0,0 0,-1 0,-3 0,-1 0,-2 0,-3 0,-4 -2,-6 -7,-7 -5,-1 -10,-2 -17,-2 -8,0 -16,1 -25,2 -1,9 -2,16 -2,23 0,4 0,8 0,13 0,6 0,8 0,8 2,0 6,0 13,0 11,0 19,0 23,-1 3,0 4,0 5,-1 1,0 2,-1 3,-3 1,-1 1,-4 2,-7l3 0c0,6 0,11 0,16 0,4 -1,9 -1,15l-2 0c-1,-5 -1,-9 -3,-11 -1,-2 -4,-3 -7,-3 -4,-1 -11,-1 -21,-1 -6,0 -11,0 -15,1l0 11c0,15 0,26 2,33 1,1 2,1 3,1 2,0 3,1 4,1 1,0 3,0 5,1 3,0 6,0 9,0 9,0 15,-1 20,-2 5,-1 9,-3 11,-6 3,-3 5,-7 7,-12zm9 24l0 -4c2,0 4,0 5,-1 1,-1 2,-2 4,-4 1,-2 2,-2 3,-3 0,0 1,-2 4,-5l12 -13c-3,-6 -6,-11 -9,-16 -3,-5 -5,-8 -7,-9 -1,-1 -2,-2 -4,-2 -1,0 -4,-1 -6,-1l0 -3 7 0c1,0 2,0 3,0 1,0 3,0 4,0 6,0 10,0 14,-1l1 3c-2,1 -3,1 -4,1 -1,0 -1,1 -1,2 0,2 3,8 9,18 2,-2 4,-5 7,-8 3,-4 5,-7 5,-9 0,-2 -3,-3 -9,-4l1 -2c2,0 4,0 7,0 2,0 4,0 7,0 3,0 6,0 9,0l0 2c-2,0 -5,2 -9,6 -3,4 -9,10 -16,18l0 1 9 17c3,6 6,10 8,12 2,1 5,2 8,2l0 3c-2,0 -7,0 -14,0 -7,0 -12,0 -13,0l-1 -3c3,0 5,0 6,0 0,-1 0,-1 0,-2 -2,-5 -4,-9 -6,-14l-4 -7c-5,4 -8,8 -11,12 -2,4 -4,6 -4,7 0,1 1,2 2,2 1,1 3,1 6,1l0 4c-2,-1 -5,-1 -7,-1 -1,0 -3,0 -5,0 -4,0 -8,0 -11,1zm119 -11l1 3c-7,6 -14,9 -22,9 -5,0 -9,-1 -14,-3 -5,-2 -8,-4 -11,-7 -2,-2 -3,-5 -4,-8 -1,-4 -1,-8 -1,-11 0,-7 1,-13 5,-19 4,-5 8,-10 14,-13 5,-3 10,-4 15,-4 2,0 6,0 11,2 5,1 8,3 8,4 0,1 -1,2 -3,5 -1,2 -2,3 -3,3 -1,0 -1,0 -2,-1 -1,0 -2,-1 -4,-2 -6,-2 -11,-4 -15,-4 -5,0 -10,2 -12,6 -3,3 -5,9 -5,16 0,7 2,12 5,17 3,4 6,8 10,10 4,2 8,3 11,3 3,0 6,-1 8,-2 3,-1 5,-2 8,-4zm4 11l0 -2c4,-1 7,-2 9,-4 2,-2 3,-5 3,-8 0,-2 1,-6 1,-13 0,-7 1,-14 1,-23 0,-9 0,-16 0,-23 0,-15 -1,-23 -2,-25 -1,-1 -3,-2 -6,-2 0,0 -1,0 -1,0 -1,0 -1,0 -1,0 -1,0 -1,0 -1,0l0 -2c10,-5 18,-8 22,-11l2 0c-1,6 -2,18 -3,35l0 39c0,18 0,29 1,31 0,2 2,3 5,4 3,0 5,1 7,1l0 3c-11,-1 -18,-1 -22,-1 -5,0 -10,0 -15,1zm40 -50l0 -3 18 -10 2 -1c1,0 1,0 1,1l-1 14c-1,12 -1,19 -1,21 0,6 1,11 2,16 2,4 6,6 12,6 2,0 4,-1 6,-1 2,-1 4,-2 7,-3 2,-1 5,-3 6,-3 0,-4 0,-7 0,-8l1 -17c0,-5 0,-9 -1,-11 0,-2 -1,-3 -3,-4 -1,0 -3,-1 -6,-1l-1 -3 22 -5c0,5 0,9 0,14 -1,4 -1,9 -1,14 -1,5 -1,9 -1,11 0,8 1,14 2,17 3,0 6,-1 9,-2l0 4c-6,2 -12,4 -19,6 -1,-3 -2,-7 -2,-12 -13,7 -23,11 -28,11 -3,0 -7,-2 -10,-5 -4,-4 -5,-10 -5,-20l0 -18c1,-4 0,-6 0,-8 0,-1 -1,-2 -3,-2 -1,0 -3,0 -6,2z"/>
      <path class="fil3 str0" d="M5976 2713l2 0c0,1 1,3 3,5 2,3 4,5 7,7 3,2 7,3 10,3 3,0 5,-1 8,-2 2,-1 4,-3 4,-7 0,-4 -2,-7 -4,-9 -3,-3 -6,-5 -9,-6l-7 -3c-3,-2 -6,-4 -8,-6 -2,-2 -3,-5 -3,-8 0,-2 1,-5 2,-8 2,-3 5,-5 8,-7 4,-2 8,-2 12,-2 2,0 7,0 13,1l3 14 -3 0c-1,-2 -2,-4 -4,-6 -1,-1 -3,-3 -6,-4 -2,-1 -4,-2 -6,-2 -3,0 -5,1 -7,3 -2,2 -3,4 -3,7 0,2 1,4 2,5 2,1 4,3 8,5l5 2c4,2 8,5 11,8 4,2 5,6 5,12 0,1 0,3 -1,6 -1,2 -2,3 -4,4 -4,3 -8,5 -11,6 -3,1 -6,1 -9,1 -1,0 -3,0 -5,0 -2,-1 -3,-1 -4,-1 -1,0 -2,0 -4,-1 -2,-1 -3,-1 -4,-1 0,-2 1,-4 1,-5 0,-1 -1,-3 -1,-6 -1,-2 -1,-4 -1,-5zm55 19l0 -3c5,0 7,-1 8,-2 0,-1 0,-2 1,-6 0,-3 0,-7 0,-12 0,-5 0,-7 0,-8 0,-8 0,-13 0,-15 0,-2 -1,-4 -1,-4 -1,-1 -2,-1 -5,-1 -2,-1 -3,-1 -3,-1 0,-1 0,-2 1,-2 7,-2 13,-6 19,-11 1,0 1,0 2,1 -1,2 -1,5 -2,9 0,5 0,9 -1,14 0,5 0,9 0,13 0,2 0,6 0,11 1,5 1,9 1,11 1,1 1,1 2,1 1,1 2,1 4,1 2,0 4,0 6,1l1 2 -33 1zm12 -98c0,-2 1,-3 2,-5 1,-1 3,-1 4,-1 2,0 4,0 5,2 1,1 2,2 2,4 0,2 -1,3 -2,5 -1,1 -3,1 -5,1 -1,0 -3,0 -4,-1 -1,-2 -2,-3 -2,-5zm52 101l-3 0c-2,-6 -4,-13 -7,-22 -3,-8 -6,-16 -9,-24 -3,-7 -5,-12 -6,-12 0,-1 -1,-1 -3,-2 -1,0 -2,-1 -3,-1l0 -2c2,0 5,0 9,0 6,0 13,0 21,-1l0 3c-4,0 -7,1 -8,1 -1,1 -1,1 -1,2 0,3 1,9 5,19 3,10 5,17 7,21 4,-6 7,-12 11,-20 3,-8 4,-14 4,-17 0,-2 -1,-4 -2,-5 -2,-1 -4,-1 -7,-1l1 -3 6 0c2,0 5,1 7,1 4,0 7,-1 10,-1l0 2c-3,1 -5,3 -7,6 -2,2 -3,5 -4,7 0,0 0,1 -1,3 -1,2 -1,3 -2,4l-14 32 -4 10zm88 -46l-41 9c0,5 1,9 1,12 1,3 3,5 5,8 4,6 9,9 15,9 2,0 5,-1 8,-2 3,-1 6,-2 9,-5l2 2c-10,7 -18,10 -26,10 -7,0 -14,-2 -18,-8 -4,-6 -7,-13 -7,-21 0,-8 2,-14 5,-19 4,-5 8,-9 12,-11 4,-3 7,-4 9,-4 3,0 5,0 8,1 2,1 5,3 8,5 2,2 4,5 6,9 0,1 1,1 1,2 1,0 1,0 3,0l0 3zm-41 6l11 -3c0,0 2,0 5,-1 3,-1 5,-1 6,-1 2,-1 4,-1 5,-2 1,0 1,0 1,-1 0,-1 -1,-2 -2,-4 -1,-2 -3,-4 -6,-6 -2,-2 -5,-3 -8,-3 -4,0 -7,2 -9,7 -2,4 -3,9 -3,14z"/>
     </g>
     <g>
      <path class="fil3" d="M6145 2006l-18 -32c0,0 -1,0 -2,0l-14 0 0 32 -8 0 0 -75 22 0c8,0 14,2 19,5 4,4 7,8 7,14l0 5c0,5 -2,8 -4,11 -3,3 -7,6 -12,7l18 33 -8 0zm-20 -38c6,0 10,-1 13,-4 3,-2 4,-5 4,-9l0 -4c0,-5 -1,-8 -4,-10 -3,-2 -8,-4 -13,-4l-14 0 0 31 14 0z"/>
      <g>
       <path class="fil4 str1" d="M6124 1908c32,0 59,26 59,59 0,32 -27,59 -59,59 -33,0 -59,-27 -59,-59 0,-33 26,-59 59,-59z"/>
      </g>
     </g>
    </g>
    <path class="fil2" d="M3184 2378c-14,23 -3,55 23,71 27,16 136,49 145,30 8,-19 -68,-97 -94,-113 -27,-16 -60,-11 -74,12zm310 101l0 0c8,19 117,-14 144,-30 26,-16 37,-48 23,-71 -14,-23 -47,-28 -73,-12 -27,16 -103,94 -94,113zm102 -262l0 0c-24,-17 -60,-9 -81,19 -20,27 -67,138 -49,156 17,17 115,-65 136,-92 20,-28 18,-65 -6,-83zm-217 175l0 0c18,-18 -29,-129 -49,-156 -21,-28 -57,-36 -81,-19 -24,18 -26,55 -5,83 20,27 118,109 135,92zm2 157l0 0c-6,-3 -14,-1 -15,1l-57 73c-8,10 -7,32 6,40 14,8 33,-2 38,-15l35 -85c1,-3 -1,-10 -7,-14zm94 1l0 0c-2,-2 -10,-4 -15,-1 -6,4 -8,11 -7,14l34 85c5,13 25,23 38,15 14,-8 15,-30 6,-40l-56 -73zm-88 96l0 0 35 98 36 -98 -36 -98 -35 98zm35 -127l0 0c31,0 56,-25 56,-56 0,-31 -25,-56 -56,-56 -31,0 -56,25 -56,56 0,31 25,56 56,56zm0 -89l0 0c18,0 33,15 33,33 0,18 -15,33 -33,33 -19,0 -33,-15 -33,-33 0,-18 14,-33 33,-33zm1 -350l0 0c-33,0 -59,32 -59,70 0,38 39,172 59,172 21,0 60,-134 60,-172 0,-38 -27,-70 -60,-70zm297 213l0 0c0,0 24,-75 -24,-135 -48,-59 -126,-49 -126,-49 0,0 1,-73 -33,-110 -62,-68 -168,-68 -230,0 -34,37 -33,110 -33,110 0,0 -78,-10 -126,49 -48,60 -24,135 -24,135 0,0 -62,17 -52,98 10,81 123,233 266,160 34,-19 43,-50 14,-29 -118,62 -230,-41 -239,-133 -7,-73 46,-88 46,-88 0,0 -21,-68 21,-122 43,-54 120,-31 120,-31 0,0 -1,-79 27,-110 52,-58 138,-58 190,0 28,31 27,110 27,110 0,0 77,-23 120,31 42,54 21,122 21,122 0,0 55,15 46,88 -12,92 -122,195 -239,133 -29,-21 -20,10 14,29 143,73 256,-79 266,-160 9,-81 -52,-98 -52,-98z"/>
   </g>
  </g>
  <g>
   <rect class="fil0" x="-17534" y="-2366" width="5980" height="2910"/>
   <g id="_2869289308064">
    <g>
     <path class="fil1" d="M-15475 -537c83,-186 189,-387 259,-614 29,-98 49,-121 8,-129 -11,-3 -54,-15 -54,-63 0,-36 27,-64 63,-64 36,0 65,28 65,64 0,226 -396,996 -396,996l-411 -1032 -46 0 0 -18 227 0 0 18 -54 0 339 842zm1235 81l0 0c-5,103 -215,139 -269,-11l-158 -424 -233 0 -189 506 53 0 0 18 -143 0 0 -18 47 0 382 -1030c390,919 401,1003 446,1004 54,1 57,-74 57,-68l7 23zm-436 -472l0 0 -107 -295 -108 295 215 0zm531 342l0 0c0,-81 125,-82 125,-1 0,39 -39,62 -39,62 0,208 481,234 481,-72 4,-313 -535,-212 -554,-540 0,-378 643,-346 643,-49 0,78 -124,81 -124,1 0,-40 40,-62 40,-62 0,-201 -424,-209 -424,63 0,354 551,174 551,539 0,388 -699,390 -699,59zm1276 49l0 0c82,-186 189,-387 259,-614 29,-98 49,-121 8,-129 -11,-3 -54,-15 -54,-63 0,-36 27,-64 63,-64 36,0 65,28 65,64 0,226 -396,996 -396,996l-411 -1032 -46 0 0 -18 227 0 0 18 -54 0 339 842zm660 152l0 0 0 18 -222 0 0 -18 50 0 0 -993 -43 0 0 -18 212 0 0 18 -45 0 0 993 48 0z"/>
     <path class="fil2" d="M-12471 -1673c-8,14 -2,33 14,43 17,10 84,30 89,19 5,-12 -42,-60 -58,-70 -16,-10 -36,-7 -45,8zm190 62l0 0c5,11 72,-9 88,-19 16,-10 23,-29 15,-43 -9,-15 -29,-18 -45,-8 -17,10 -63,58 -58,70zm63 -161l0 0c-15,-11 -37,-6 -50,11 -12,17 -41,85 -30,96 11,11 71,-39 83,-56 13,-17 11,-40 -3,-51zm-133 107l0 0c11,-11 -18,-79 -30,-96 -13,-17 -35,-22 -50,-11 -15,11 -16,34 -3,51 12,17 72,67 83,56zm1 97l0 0c-4,-2 -8,-1 -10,0l-34 45c-5,6 -5,20 4,24 8,5 20,-1 23,-9l21 -52c1,-2 0,-6 -4,-8zm58 0l0 0c-2,-1 -6,-2 -10,0 -3,2 -5,6 -4,8l21 52c3,8 15,14 23,9 9,-4 9,-18 4,-24l-34 -45zm-54 59l0 0 21 60 22 -60 -22 -60 -21 60zm21 -78l0 0c19,0 34,-15 34,-34 0,-19 -15,-35 -34,-35 -19,0 -35,16 -35,35 0,19 16,34 35,34zm0 -55l0 0c11,0 20,10 20,21 0,11 -9,20 -20,20 -11,0 -20,-9 -20,-20 0,-11 9,-21 20,-21zm1 -214l0 0c-20,0 -37,20 -37,43 0,23 24,105 37,105 12,0 37,-82 37,-105 0,-23 -17,-43 -37,-43zm182 130l0 0c0,0 14,-45 -15,-82 -30,-37 -77,-30 -77,-30 0,0 0,-45 -20,-67 -39,-42 -103,-43 -142,0 -20,22 -20,67 -20,67 0,0 -47,-7 -77,30 -29,37 -15,82 -15,82 0,0 -37,11 -32,61 6,49 76,143 163,98 21,-12 27,-31 9,-18 -72,38 -141,-25 -146,-81 -5,-45 28,-55 28,-55 0,0 -13,-41 13,-74 26,-33 73,-19 73,-19 0,0 -1,-49 17,-68 31,-36 85,-35 116,0 17,19 17,68 17,68 0,0 47,-14 73,19 26,33 13,74 13,74 0,0 34,10 28,55 -7,56 -74,119 -146,81 -18,-13 -12,6 9,18 87,45 157,-49 162,-98 6,-50 -31,-61 -31,-61z"/>
     <g>
      <path class="fil3 str0" d="M-14011 -135l5 0c-2,10 -4,18 -5,24 -2,6 -4,12 -7,18 -3,0 -7,-1 -13,-1 -5,0 -12,0 -22,0 -6,0 -12,0 -18,0 -7,-1 -10,-1 -9,-1 -6,0 -13,0 -21,0 -8,1 -18,1 -29,1 -11,0 -20,1 -25,1l1 -5c2,-1 5,-1 8,-2 3,-1 5,-2 6,-3 1,0 2,-2 3,-3 0,-1 1,-4 1,-7 1,-4 1,-10 2,-19 0,-9 1,-20 1,-31 0,-12 0,-19 0,-22l-1 -44c0,-13 0,-23 -1,-27 -1,-5 -2,-8 -5,-10 -2,-1 -6,-3 -12,-4 0,-2 0,-3 0,-4l89 0c10,0 25,0 45,-1 0,8 -1,16 -2,24 -1,8 -3,12 -5,12 -2,0 -3,-1 -3,-2 0,-1 0,-2 0,-5 1,-3 1,-5 1,-6 0,-6 -4,-11 -12,-12 -9,-2 -18,-3 -30,-3 -13,0 -27,1 -42,3 -2,15 -3,28 -3,38 0,7 0,15 0,24 0,9 1,13 1,13 2,0 9,0 20,0 20,0 33,-1 40,-1 5,-1 7,-1 9,-2 1,-1 3,-2 4,-5 1,-3 3,-7 4,-12l4 0c0,10 0,18 0,26 0,7 0,16 0,26l-5 0c0,-9 -1,-15 -4,-18 -2,-3 -6,-5 -13,-6 -6,-1 -18,-2 -34,-2 -11,0 -19,1 -25,2l-1 20c-1,24 0,42 3,55 1,1 3,1 5,2 3,1 5,1 7,1 2,1 5,1 9,1 4,1 9,1 15,1 14,0 26,-1 34,-3 8,-3 15,-6 19,-11 4,-4 8,-11 11,-20zm31 0l1 -54c-4,0 -9,0 -15,0 0,-1 0,-2 0,-4 8,-5 15,-10 19,-14 5,-4 10,-11 16,-19l-1 25c8,1 17,1 26,1 5,0 10,0 15,0l0 9c-5,0 -10,0 -15,0 -1,0 -2,0 -6,0 -3,0 -8,0 -14,0 -2,0 -3,0 -4,0 -1,0 -2,1 -2,2 0,1 -1,3 -1,5 0,3 0,6 0,8l-1 44c0,8 1,15 3,20 2,6 7,8 15,8 3,0 7,0 11,-2 5,-1 10,-3 16,-6 0,1 0,2 0,2 0,0 0,1 0,1 -3,4 -9,7 -17,11 -9,3 -17,5 -24,5 -6,0 -11,-2 -15,-6 -5,-4 -7,-11 -7,-22l0 -14zm68 -129l0 -5c2,-1 4,-2 4,-2l27 -13 5 -3 4 2c-1,9 -3,18 -3,29 -1,11 -2,25 -2,42l-1 28c11,-5 20,-8 27,-10 7,-3 13,-4 19,-4 9,0 16,3 20,8 4,6 7,12 7,20 1,8 2,18 2,31 0,3 0,5 0,7 0,2 0,5 0,9 0,4 -1,7 -1,11 0,3 0,5 0,5 0,4 1,7 3,8 2,1 7,2 16,2l0 4 -9 0c-2,0 -7,0 -18,0 -10,1 -15,1 -15,1 0,0 -2,0 -6,1 -1,0 -2,-1 -2,-2 0,-1 1,-2 3,-2 3,-1 6,-2 8,-4 1,-3 2,-6 3,-11 1,-5 1,-14 1,-25 0,-19 -1,-32 -4,-40 -3,-8 -10,-12 -21,-12 -5,0 -11,1 -18,3 -6,2 -11,4 -14,6 0,3 0,7 -1,13l-1 34c0,2 0,4 0,6 0,1 0,3 0,5 0,9 0,15 2,18 0,1 1,3 3,3 2,1 6,1 14,2l0 5c-3,-1 -10,-1 -20,-1 -10,0 -21,1 -33,2l0 -5c6,-1 10,-2 12,-3 2,-2 4,-4 4,-7 1,-3 1,-9 2,-18 0,-15 0,-27 1,-38l0 -39c0,-4 1,-13 1,-26 0,-13 -1,-22 -2,-28 -1,-6 -4,-9 -8,-9 -1,0 -3,1 -9,2zm134 167l0 -4c5,-1 8,-2 11,-3 2,-1 3,-2 4,-3 1,-1 1,-3 2,-5 0,-5 1,-12 1,-19 1,-8 1,-15 1,-23 0,-10 -1,-17 -1,-21 -1,-4 -3,-7 -5,-8 -2,-1 -6,-2 -13,-2 0,-1 0,-2 0,-3 4,-1 9,-3 16,-6 7,-3 10,-4 11,-5 3,-2 5,-2 6,-2 1,0 2,1 2,4 1,2 1,7 1,13 10,-6 19,-10 25,-12 7,-3 13,-4 19,-4 9,0 16,2 20,6 4,4 6,9 7,14 1,6 2,13 2,22l0 33c0,14 1,21 2,22 0,1 3,1 7,2 4,1 6,2 7,2l0 4c-7,-1 -15,-1 -24,-1 -8,0 -17,0 -28,1l0 -4c8,-1 14,-4 16,-8 1,-3 2,-9 3,-19 0,-10 0,-18 0,-23 0,-8 0,-15 -1,-20 0,-5 -2,-10 -5,-14 -4,-3 -9,-5 -15,-5 -3,0 -8,1 -14,2 -6,1 -13,4 -21,8l-1 37c0,16 0,26 1,31 0,2 1,4 1,5 1,1 3,2 5,3 2,1 7,2 12,2l0 5c-2,0 -5,-1 -9,-1 -4,0 -9,0 -15,-1l-30 0zm137 3l1 -4c8,-1 12,-3 13,-5 1,0 1,-4 2,-9 0,-6 0,-13 1,-21 0,-8 0,-13 0,-14 0,-13 0,-21 -1,-25 0,-4 -1,-6 -2,-8 -1,0 -3,-1 -7,-1 -4,-1 -7,-1 -7,-2 0,-1 1,-2 3,-3 11,-3 22,-9 32,-18 1,0 2,0 3,1 -1,3 -2,9 -2,16 -1,8 -2,15 -2,23 0,8 -1,15 -1,22 0,4 1,11 1,19 0,9 1,15 2,18 0,2 1,3 2,3 2,1 4,1 7,1 3,0 7,1 10,1l1 4 -56 2zm21 -166c0,-4 2,-6 4,-8 2,-2 4,-3 7,-3 3,0 6,1 8,3 2,2 3,5 3,8 0,3 -1,5 -3,7 -2,2 -5,3 -8,3 -3,0 -5,-1 -7,-3 -2,-2 -4,-4 -4,-7zm138 148l2 4c-12,10 -25,15 -38,15 -7,0 -15,-1 -23,-4 -8,-3 -14,-7 -19,-12 -3,-4 -5,-9 -7,-15 -1,-6 -2,-12 -2,-18 0,-11 3,-22 9,-31 6,-10 14,-17 23,-23 9,-5 18,-7 25,-7 5,0 12,1 20,4 9,2 13,5 13,7 0,1 -1,3 -4,7 -3,4 -5,6 -6,6 -1,0 -2,0 -3,-1 -2,-1 -4,-2 -7,-4 -10,-4 -19,-6 -25,-6 -10,0 -17,3 -21,9 -5,6 -8,15 -8,28 0,11 3,20 8,28 5,8 11,13 18,17 6,3 13,5 19,5 4,0 9,-1 13,-2 4,-2 9,-4 13,-7zm227 -23l4 0c-2,10 -3,18 -5,24 -2,6 -4,12 -7,18 -3,0 -7,-1 -12,-1 -6,0 -13,0 -22,0 -6,0 -12,0 -19,0 -7,-1 -9,-1 -8,-1 -6,0 -14,0 -22,0 -8,1 -17,1 -29,1 -11,0 -19,1 -24,1l0 -5c3,-1 6,-1 9,-2 3,-1 5,-2 6,-3 1,0 2,-2 2,-3 1,-1 1,-4 1,-7 1,-4 2,-10 2,-19 1,-9 1,-20 1,-31 1,-12 1,-19 1,-22l-1 -44c0,-13 -1,-23 -2,-27 -1,-5 -2,-8 -4,-10 -3,-1 -7,-3 -13,-4 0,-2 0,-3 0,-4l89 0c10,0 25,0 46,-1 -1,8 -2,16 -3,24 -1,8 -3,12 -5,12 -2,0 -3,-1 -3,-2 0,-1 0,-2 1,-5 0,-3 0,-5 0,-6 0,-6 -4,-11 -12,-12 -8,-2 -18,-3 -29,-3 -14,0 -28,1 -43,3 -2,15 -2,28 -2,38 0,7 0,15 0,24 0,9 0,13 0,13 2,0 9,0 20,0 20,0 33,-1 41,-1 4,-1 7,-1 8,-2 2,-1 3,-2 4,-5 2,-3 3,-7 5,-12l4 0c0,10 0,18 0,26 0,7 -1,16 -1,26l-5 0c0,-9 -1,-15 -3,-18 -3,-3 -7,-5 -13,-6 -7,-1 -18,-2 -35,-2 -11,0 -19,1 -25,2l-1 20c0,24 1,42 3,55 2,1 4,1 6,2 2,1 4,1 6,1 3,1 6,1 9,1 4,1 9,1 15,1 15,0 26,-1 34,-3 9,-3 15,-6 19,-11 5,-4 9,-11 12,-20zm14 41l0 -4c7,-1 12,-3 15,-6 3,-3 5,-8 5,-14 1,-3 1,-10 2,-22 0,-11 1,-24 1,-39 1,-15 1,-28 1,-39 0,-25 -1,-39 -4,-42 -1,-3 -4,-4 -9,-4 -1,0 -2,0 -3,0 -1,0 -1,0 -2,0 0,1 -1,1 -2,1l0 -5c18,-7 31,-13 38,-18l5 0c-3,11 -5,30 -6,59l-1 67c0,31 1,49 2,53 1,2 4,4 8,5 5,2 9,2 13,3l0 5c-18,-1 -30,-2 -37,-2 -8,0 -17,1 -26,2zm74 0l1 -4c7,-1 12,-3 13,-5 0,0 1,-4 1,-9 1,-6 1,-13 1,-21 0,-8 0,-13 0,-14 0,-13 0,-21 0,-25 -1,-4 -1,-6 -3,-8 0,0 -2,-1 -7,-1 -4,-1 -6,-1 -6,-2 0,-1 1,-2 2,-3 12,-3 22,-9 33,-18 1,0 1,0 3,1 -1,3 -2,9 -3,16 0,8 -1,15 -1,23 -1,8 -1,15 -1,22 0,4 0,11 0,19 1,9 1,15 2,18 1,2 2,3 3,3 1,1 3,1 7,1 3,0 6,1 9,1l2 4 -56 2zm21 -166c0,-4 1,-6 3,-8 2,-2 5,-3 8,-3 3,0 5,1 7,3 2,2 3,5 3,8 0,3 -1,5 -3,7 -2,2 -4,3 -7,3 -3,0 -6,-1 -8,-3 -2,-2 -3,-4 -3,-7zm58 125l1 -54c-4,0 -9,0 -15,0 0,-1 0,-2 0,-4 9,-5 15,-10 19,-14 5,-4 10,-11 16,-19l-1 25c8,1 17,1 26,1 5,0 10,0 15,0l0 9c-5,0 -10,0 -15,0 -1,0 -2,0 -5,0 -4,0 -9,0 -15,0 -2,0 -3,0 -4,0 -1,0 -2,1 -2,2 0,1 0,3 -1,5 0,3 0,6 0,8l-1 44c0,8 1,15 3,20 2,6 7,8 15,8 3,0 7,0 12,-2 4,-1 9,-3 15,-6 0,1 0,2 0,2 0,0 1,1 1,1 -4,4 -10,7 -18,11 -9,3 -17,5 -24,5 -6,0 -11,-2 -15,-6 -4,-4 -7,-11 -7,-22l0 -14zm162 -32l-70 15c1,9 1,15 3,20 1,5 3,10 7,15 7,9 16,14 26,14 4,0 9,-1 13,-3 5,-1 10,-4 16,-8l3 3c-17,12 -31,18 -43,18 -14,0 -24,-5 -31,-15 -8,-10 -12,-22 -12,-35 0,-13 3,-24 9,-33 6,-9 12,-15 19,-19 7,-4 12,-6 16,-6 4,0 8,1 13,2 4,1 9,4 13,8 4,4 8,9 11,15 1,2 2,3 2,3 1,1 2,1 4,1l1 5zm-70 10l19 -4c0,-1 3,-1 8,-2 5,-2 8,-2 10,-3 5,-1 8,-1 9,-2 1,0 2,-1 2,-2 0,-2 -1,-4 -3,-8 -3,-3 -6,-7 -10,-10 -4,-3 -9,-4 -14,-4 -7,0 -12,4 -15,11 -3,7 -5,15 -6,24zm295 22l4 0c-2,10 -3,18 -5,24 -2,6 -4,12 -7,18 -3,0 -7,-1 -12,-1 -6,0 -13,0 -23,0 -5,0 -12,0 -18,0 -7,-1 -10,-1 -9,-1 -6,0 -13,0 -21,0 -8,1 -17,1 -29,1 -11,0 -19,1 -25,1l1 -5c3,-1 6,-1 9,-2 3,-1 5,-2 6,-3 1,0 1,-2 2,-3 0,-1 1,-4 1,-7 1,-4 1,-10 2,-19 0,-9 1,-20 1,-31 1,-12 1,-19 1,-22l-1 -44c-1,-13 -1,-23 -2,-27 -1,-5 -2,-8 -4,-10 -3,-1 -7,-3 -13,-4 0,-2 0,-3 0,-4l89 0c10,0 25,0 45,-1 0,8 -1,16 -2,24 -1,8 -3,12 -5,12 -2,0 -3,-1 -3,-2 0,-1 0,-2 0,-5 1,-3 1,-5 1,-6 0,-6 -4,-11 -12,-12 -8,-2 -18,-3 -29,-3 -14,0 -28,1 -43,3 -2,15 -3,28 -3,38 0,7 1,15 1,24 0,9 0,13 0,13 2,0 9,0 20,0 20,0 33,-1 41,-1 4,-1 7,-1 8,-2 1,-1 3,-2 4,-5 1,-3 3,-7 4,-12l4 0c0,10 0,18 0,26 0,7 0,16 0,26l-5 0c0,-9 -1,-15 -4,-18 -2,-3 -6,-5 -13,-6 -6,-1 -18,-2 -34,-2 -11,0 -19,1 -25,2l-1 20c0,24 0,42 3,55 1,1 3,1 6,2 2,1 4,1 6,1 2,1 5,1 9,1 4,1 9,1 15,1 14,0 26,-1 34,-3 8,-3 15,-6 19,-11 5,-4 8,-11 12,-20zm15 40l0 -5c4,-1 6,-1 8,-3 2,-1 4,-3 7,-6 2,-3 4,-5 4,-5 1,-1 4,-4 8,-9l20 -22c-5,-10 -9,-18 -15,-27 -5,-8 -9,-14 -12,-16 -1,-1 -4,-2 -6,-3 -3,0 -7,-1 -11,-1l0 -6 12 1c1,0 3,0 5,0 2,0 5,0 7,0 10,0 18,-1 24,-2l1 6c-2,0 -5,0 -6,1 -2,0 -2,1 -2,3 0,3 5,13 15,31 3,-4 8,-9 12,-15 5,-6 8,-11 8,-14 0,-3 -5,-6 -14,-7l2 -4c3,0 6,0 11,1 3,0 6,0 11,0 5,0 11,-1 17,-1l0 4c-5,1 -10,4 -16,10 -6,6 -15,17 -27,31l-1 2 15 28c6,11 11,17 14,20 4,2 8,4 15,4l0 5c-4,0 -13,-1 -25,-1 -12,0 -19,1 -23,1l-1 -5c6,-1 9,-1 10,-1 1,0 1,-1 1,-2 -3,-9 -7,-16 -11,-23l-6 -14c-8,8 -14,15 -18,21 -5,7 -7,11 -7,12 0,2 1,3 3,4 1,1 5,1 10,2l0 5c-4,0 -8,0 -11,-1 -3,0 -6,0 -9,0 -7,0 -13,1 -19,1zm202 -17l2 4c-12,10 -25,15 -38,15 -8,0 -15,-1 -23,-4 -8,-3 -15,-7 -19,-12 -3,-4 -5,-9 -7,-15 -2,-6 -2,-12 -2,-18 0,-11 3,-22 9,-31 6,-10 14,-17 23,-23 9,-5 17,-7 25,-7 5,0 11,1 20,4 8,2 13,5 13,7 0,1 -2,3 -4,7 -3,4 -5,6 -7,6 0,0 -1,0 -3,-1 -1,-1 -3,-2 -7,-4 -10,-4 -18,-6 -25,-6 -9,0 -16,3 -21,9 -5,6 -7,15 -7,28 0,11 3,20 7,28 5,8 11,13 18,17 7,3 13,5 19,5 5,0 9,-1 14,-2 4,-2 8,-4 13,-7zm7 18l0 -4c7,-1 12,-3 15,-6 2,-3 4,-8 5,-14 0,-3 1,-10 1,-22 1,-11 2,-24 2,-39 0,-15 1,-28 1,-39 0,-25 -2,-39 -4,-42 -2,-3 -5,-4 -10,-4 -1,0 -2,0 -2,0 -1,0 -2,0 -2,0 -1,1 -1,1 -2,1l0 -5c18,-7 31,-13 38,-18l4 0c-3,11 -5,30 -5,59l-1 67c0,31 0,49 2,53 1,2 3,4 8,5 5,2 9,2 13,3l0 5c-19,-1 -31,-2 -37,-2 -9,0 -17,1 -26,2zm67 -85l0 -6 31 -17 3 -1c1,0 2,1 2,3l-2 24c-1,18 -2,30 -2,35 0,10 2,19 5,26 2,7 9,10 19,10 3,0 7,0 10,-2 4,-1 8,-2 12,-4 5,-3 8,-4 11,-6 0,-7 0,-11 0,-13l1 -29c0,-8 0,-14 -1,-18 -1,-3 -2,-6 -5,-7 -2,-1 -6,-1 -11,-2l-1 -5 38 -8c-1,8 -1,16 -2,23 0,8 -1,16 -1,24 -1,9 -1,15 -1,20 0,13 1,22 3,28 5,0 10,-1 15,-4l0 7c-10,3 -21,6 -32,10 -1,-5 -3,-11 -3,-19 -23,11 -39,17 -48,17 -5,0 -11,-3 -17,-8 -6,-6 -9,-17 -8,-33l1 -32c0,-5 0,-10 -1,-13 -1,-2 -2,-4 -5,-4 -2,0 -5,1 -11,4z"/>
      <path class="fil3 str0" d="M-12274 -126l4 0c0,2 2,5 5,9 3,4 7,7 12,11 5,3 11,4 17,4 4,0 8,0 13,-2 4,-2 6,-6 6,-12 0,-7 -2,-12 -6,-16 -5,-4 -10,-7 -16,-10l-10 -5c-6,-3 -11,-7 -15,-10 -4,-4 -5,-8 -5,-13 0,-5 1,-9 4,-14 3,-5 8,-8 14,-11 5,-4 12,-5 19,-5 5,0 12,1 23,2l4 24 -5 0c0,-4 -2,-7 -5,-9 -3,-3 -7,-6 -11,-8 -4,-2 -8,-3 -10,-3 -5,0 -9,2 -13,5 -3,3 -4,7 -4,11 0,4 1,7 3,9 3,2 7,5 13,8l8 4c8,4 15,8 20,13 6,5 9,12 9,20 0,4 -1,7 -3,11 -1,3 -3,6 -6,7 -7,5 -14,9 -19,10 -5,1 -10,2 -15,2 -2,0 -5,0 -8,-1 -3,0 -6,0 -7,-1 -2,0 -4,-1 -8,-2 -3,-1 -5,-1 -6,-2 1,-3 1,-6 1,-8 0,-2 0,-5 -1,-9 -1,-4 -2,-7 -2,-9zm93 32l0 -4c8,-1 13,-3 14,-5 0,0 1,-4 1,-9 1,-6 1,-13 1,-21 0,-8 0,-13 0,-14 0,-13 0,-21 0,-25 -1,-4 -1,-6 -3,-8 0,0 -2,-1 -7,-1 -4,-1 -6,-1 -6,-2 0,-1 1,-2 2,-3 11,-3 22,-9 33,-18 1,0 1,0 2,1 0,3 -1,9 -2,16 0,8 -1,15 -1,23 -1,8 -1,15 -1,22 0,4 0,11 0,19 1,9 1,15 2,18 1,2 2,3 3,3 1,1 3,1 7,1 3,0 6,1 9,1l2 4 -56 2zm21 -166c0,-4 1,-6 3,-8 2,-2 5,-3 8,-3 3,0 5,1 7,3 2,2 3,5 3,8 0,3 -1,5 -3,7 -2,2 -4,3 -7,3 -3,0 -6,-1 -8,-3 -2,-2 -3,-4 -3,-7zm88 172l-5 0c-3,-11 -6,-23 -12,-38 -5,-15 -10,-28 -15,-41 -6,-13 -9,-20 -10,-21 -1,0 -3,-1 -5,-2 -2,-2 -4,-2 -5,-3l0 -4c3,1 8,1 15,1 10,0 22,-1 35,-1l0 4c-7,1 -11,2 -13,3 -1,0 -2,1 -2,3 0,4 2,15 8,32 6,17 10,29 13,36 6,-10 12,-22 17,-35 6,-13 8,-23 8,-28 0,-4 -1,-7 -4,-8 -2,-2 -6,-2 -10,-3l0 -4 10 0c5,0 9,0 13,0 6,0 11,0 16,-1l0 4c-4,2 -8,5 -11,9 -3,5 -5,9 -6,13 -1,0 -2,2 -3,5 -1,3 -2,5 -3,6l-24 55 -7 18zm149 -79l-69 15c0,9 1,15 2,20 2,5 4,10 8,15 7,9 15,14 26,14 4,0 8,-1 13,-3 5,-1 10,-4 16,-8l2 3c-16,12 -30,18 -43,18 -13,0 -23,-5 -31,-15 -7,-10 -11,-22 -11,-35 0,-13 3,-24 9,-33 5,-9 12,-15 19,-19 7,-4 12,-6 16,-6 4,0 8,1 13,2 4,1 8,4 13,8 4,4 8,9 11,15 0,2 1,3 2,3 1,1 2,1 4,1l0 5zm-69 10l18 -4c1,-1 4,-1 9,-2 5,-2 8,-2 9,-3 5,-1 8,-1 10,-2 1,0 2,-1 2,-2 0,-2 -2,-4 -4,-8 -2,-3 -5,-7 -9,-10 -4,-3 -9,-4 -15,-4 -7,0 -12,4 -15,11 -3,7 -4,15 -5,24z"/>
     </g>
     <g>
      <path class="fil3" d="M-11988 -1326l-29 -54c-1,0 -2,0 -4,0l-24 0 0 54 -14 0 0 -128 38 0c13,0 24,3 32,9 8,6 11,14 11,24l0 9c0,7 -2,13 -6,18 -5,6 -11,9 -19,12l30 56 -15 0zm-33 -65c9,0 17,-2 22,-6 5,-3 8,-9 8,-16l0 -7c0,-7 -3,-13 -8,-17 -6,-4 -13,-6 -22,-6l-24 0 0 52 24 0z"/>
      <g>
       <path class="fil4 str2" d="M-12023 -1493c56,0 100,45 100,100 0,55 -44,100 -100,100 -55,0 -100,-45 -100,-100 0,-55 45,-100 100,-100z"/>
      </g>
     </g>
    </g>
    <path class="fil2" d="M-17012 -695c-24,39 -6,93 39,120 45,27 230,84 245,52 15,-32 -115,-166 -160,-193 -44,-27 -101,-18 -124,21zm525 172l0 0c15,32 200,-25 245,-52 44,-27 63,-81 39,-120 -23,-39 -80,-48 -124,-21 -45,27 -175,161 -160,193zm174 -445l0 0c-41,-30 -102,-15 -137,31 -35,47 -114,236 -84,265 29,30 195,-109 230,-155 35,-47 31,-110 -9,-141zm-368 296l0 0c30,-29 -49,-218 -84,-265 -35,-46 -97,-61 -137,-31 -40,31 -44,94 -9,141 35,46 201,185 230,155zm3 268l0 0c-10,-6 -23,-3 -26,1l-96 123c-14,18 -13,55 11,69 23,14 56,-4 64,-26l59 -144c2,-5 -2,-18 -12,-23zm160 2l0 0c-3,-5 -17,-8 -27,-2 -9,5 -13,19 -11,23l58 144c9,22 42,40 65,26 24,-14 24,-51 10,-69l-95 -122zm-150 162l0 0 60 167 60 -167 -60 -166 -60 166zm59 -216l0 0c52,0 95,-42 95,-95 0,-52 -43,-95 -95,-95 -53,0 -95,43 -95,95 0,53 42,95 95,95zm0 -151l0 0c31,0 56,25 56,56 0,31 -25,56 -56,56 -31,0 -56,-25 -56,-56 0,-31 25,-56 56,-56zm3 -593l0 0c-56,0 -102,54 -102,118 0,65 67,292 102,292 34,0 101,-227 101,-292 0,-64 -45,-118 -101,-118zm503 360l0 0c0,0 41,-126 -41,-228 -82,-101 -214,-83 -214,-83 0,0 2,-124 -55,-187 -106,-116 -285,-116 -391,0 -58,63 -56,187 -56,187 0,0 -132,-18 -213,83 -82,102 -42,228 -42,228 0,0 -104,30 -88,167 17,138 209,396 451,272 58,-32 74,-85 25,-49 -200,105 -391,-71 -406,-225 -11,-125 78,-151 78,-151 0,0 -36,-115 36,-206 72,-92 203,-53 203,-53 0,0 -2,-134 46,-187 88,-99 235,-99 323,0 47,53 46,187 46,187 0,0 130,-39 202,53 72,91 37,206 37,206 0,0 93,26 77,151 -20,156 -206,330 -406,225 -48,-36 -32,16 25,49 242,124 435,-134 451,-272 17,-137 -88,-167 -88,-167z"/>
   </g>
  </g>
 </g>
</svg>
